<?xml version="1.0" encoding="UTF-8"?> <svg xmlns="http://www.w3.org/2000/svg" width="1000" height="276" viewBox="0 0 1000 276" fill="none"><path d="M562.756 183.582H559.355V182.46H567.525V183.582H564.115V192.511H562.756V183.582Z" fill="white"></path><path d="M206.446 43.641C212.792 43.6411 218.622 44.9378 223.777 47.6718C228.94 50.2832 233.043 54.0518 236.217 59.0119C239.259 63.8316 240.845 69.6944 240.845 76.4683V132.895H220.472V132.764L220.481 132.781V80.7883C220.481 74.9259 218.631 70.4916 214.923 67.2317C211.215 63.9718 206.717 62.4119 201.29 62.4119C197.713 62.412 194.408 63.1921 191.498 64.6293C188.587 66.0664 186.203 68.1433 184.484 70.8774C183.268 72.8137 182.449 75.0142 182.074 77.5183V132.895H161.428V132.764L161.455 132.781V80.7883C161.455 74.9259 159.605 70.4916 155.897 67.2317C152.189 63.9718 147.691 62.4119 142.264 62.4119C138.556 62.412 135.251 63.1922 132.341 64.6293C129.43 66.0664 127.177 68.1432 125.459 70.8774C124.099 73.0407 123.236 75.5336 122.934 78.4118V132.781H102.561V45.4724H122.934V54.2417C125.329 51.6237 128.176 49.4339 131.403 47.6718C136.435 44.9377 142.124 43.6411 148.471 43.641C154.818 43.641 160.377 44.9376 165.54 47.6718C170.241 50.1112 174.007 53.5607 176.963 58.0474C180.162 53.6853 184.177 50.2291 189.113 47.6718C194.408 44.9377 200.099 43.641 206.446 43.641Z" fill="white"></path><path d="M45.2534 132.781L45.2269 132.79V132.78C45.2356 132.78 45.2447 132.781 45.2534 132.781Z" fill="white"></path><path fill-rule="evenodd" clip-rule="evenodd" d="M729.892 41.8096C738.492 41.8097 746.566 43.7638 753.579 47.8036C760.592 51.8347 766.151 57.1802 770.254 64.0944C774.365 71.0086 776.469 78.6854 776.469 87.1682C776.469 95.651 774.365 103.328 770.254 110.242C766.151 117.156 760.592 122.616 753.579 126.665C746.557 130.696 738.615 132.79 729.892 132.79V132.781C721.283 132.781 713.472 130.696 706.458 126.656C699.445 122.625 693.887 117.148 689.785 110.233C685.682 103.319 683.569 95.6425 683.569 87.1597C683.569 78.6768 685.682 71.0002 689.785 64.2262C693.887 57.4435 699.445 51.984 706.458 47.9354C713.472 43.8867 721.292 41.8096 729.892 41.8096ZM729.752 61.0016C724.597 61.0016 720.353 62.1665 716.505 64.3837C712.665 66.6007 709.623 69.7292 707.511 73.6288C705.398 77.5459 704.328 81.9717 704.328 87.0544C704.328 92.1371 705.389 96.7031 707.511 100.734C709.623 104.783 712.674 107.903 716.505 110.111C720.616 112.328 724.973 113.493 729.883 113.493H729.892C734.924 113.493 739.421 112.328 743.252 110.111C747.091 107.894 750.134 104.765 752.247 100.734C754.36 96.7031 755.429 92.1371 755.429 87.0544C755.429 81.9717 754.368 77.4057 752.106 73.6288C749.854 69.7117 746.811 66.7146 743.112 64.3837C739.272 62.1666 734.906 61.0016 729.752 61.0016Z" fill="white"></path><path fill-rule="evenodd" clip-rule="evenodd" d="M398.995 43.5186C403.493 43.5186 407.464 44.2983 411.032 45.8669C414.6 47.4356 417.914 50.0299 420.956 53.5613L407.595 66.987C406.008 65.287 404.159 64.1212 402.169 63.3413C400.179 62.5614 397.934 62.2981 395.287 62.2981C389.597 62.2982 384.968 64.1302 381.26 67.6442C378.252 70.5995 376.467 74.9433 375.974 80.7429V132.782H355.601V45.4733H375.974V54.3701C376.104 54.1839 376.236 53.9989 376.369 53.8155C381.401 46.9014 388.94 43.5186 398.995 43.5186ZM375.834 84.1892L375.843 84.1712L375.834 84.167C375.834 84.1743 375.834 84.1818 375.834 84.1892Z" fill="white"></path><path d="M564.852 1.6919C575.301 1.69194 584.436 3.39189 591.984 6.77443C599.654 10.1571 606.405 14.7225 612.358 20.5852L597.936 34.7904C594.096 30.628 589.468 27.4908 584.042 25.1423C578.615 22.7937 572.137 21.6284 564.852 21.6284C558.505 21.6284 552.543 22.671 547.257 24.8881C541.962 27.1052 537.333 30.2339 533.493 34.265C529.653 38.3136 526.611 43.1248 524.499 48.7244C522.386 54.3241 521.325 60.4496 521.325 67.1008C521.325 73.7521 522.386 79.8775 524.499 85.4772C526.611 91.0769 529.531 95.9055 533.493 99.9366C537.333 103.968 541.962 107.105 547.257 109.313C552.552 111.522 558.373 112.573 564.852 112.573C572.794 112.573 579.404 111.408 584.962 109.059C590.388 106.711 595.149 103.459 598.857 99.2794L613.278 113.485C607.325 119.479 600.444 124.045 592.37 127.559C584.296 131.073 575.169 132.772 564.834 132.772L564.852 132.782C555.454 132.782 546.854 131.081 538.92 127.83C530.977 124.448 524.104 119.882 518.143 113.757C512.19 107.763 507.693 100.725 504.511 92.7771C501.337 84.8288 499.75 76.3549 499.75 67.2411C499.75 58.1273 501.337 49.6527 504.511 41.7044C507.684 33.7562 512.322 26.8507 518.143 20.8479C524.095 14.8539 530.977 10.2885 538.92 6.77443C546.862 3.39186 555.463 1.6919 564.852 1.6919Z" fill="white"></path><path fill-rule="evenodd" clip-rule="evenodd" d="M666.605 43.5186C671.103 43.5186 675.074 44.2983 678.642 45.8669C682.21 47.4355 685.524 50.0298 688.566 53.5613L675.206 66.987C673.619 65.2869 671.769 64.1212 669.779 63.3413C667.789 62.5614 665.545 62.2981 662.897 62.2981C657.208 62.2981 652.579 64.1302 648.871 67.6442C645.429 71.0254 643.587 76.2237 643.453 83.3411V132.782H623.08V45.4733H643.453V54.5609C643.625 54.3101 643.8 54.0613 643.979 53.8155C649.011 46.9014 656.55 43.5187 666.605 43.5186ZM643.444 84.1892L643.453 84.1712L643.444 84.167C643.444 84.1743 643.444 84.1818 643.444 84.1892Z" fill="white"></path><path fill-rule="evenodd" clip-rule="evenodd" d="M292.218 41.6872C298.968 41.6873 305.052 43.1239 310.215 45.9893C313.786 47.9219 316.815 50.3337 319.342 53.2147V43.6325H339.715V130.941H319.342V121.398C316.841 124.213 313.856 126.57 310.347 128.469C305.052 131.335 298.968 132.772 292.218 132.772V132.781C284.144 132.781 276.999 130.827 270.503 126.787C264.016 122.738 258.861 117.41 255.153 110.496C251.444 103.582 249.463 95.9053 249.463 87.4224C249.463 78.9395 251.313 71.1314 255.153 64.2347C258.861 57.3205 264.015 51.8608 270.503 47.8121C276.99 43.7635 284.267 41.6872 292.218 41.6872ZM295.541 60.7294C290.517 60.7294 286.274 61.8953 282.575 64.1124C278.867 66.3294 275.824 69.4574 273.711 73.4884C271.599 77.537 270.538 82.0858 270.538 87.3C270.538 92.5141 271.599 97.0797 273.711 101.111C275.824 105.142 278.875 108.279 282.575 110.488C286.283 112.705 290.649 113.87 295.541 113.87L295.531 113.888C303.071 113.888 309.163 111.407 313.792 106.456C318.421 101.505 320.674 95.1167 320.675 87.3C320.675 82.0858 319.614 77.5195 317.501 73.4884C315.388 69.4575 312.469 66.3207 308.769 64.1124C305.061 61.8953 300.564 60.7295 295.541 60.7294Z" fill="white"></path><path d="M466.104 45.3415H487.416V63.5861H466.104V132.781H445.73V63.5861H424.551V45.3415H445.73V8.99093H466.104V45.3415Z" fill="white"></path><path d="M869.345 100.66L890.295 45.4724H911.335L875.602 132.781H863.828L843.056 80.6428L822.397 132.781H810.492L774.759 45.4724H795.931L816.888 100.682L837.23 45.35H849.004L869.345 100.66Z" fill="white"></path><path fill-rule="evenodd" clip-rule="evenodd" d="M1000 130.95H979.609V121.407C977.11 124.218 974.126 126.572 970.615 128.469C965.32 131.335 959.236 132.772 952.486 132.772V132.781C944.412 132.781 937.267 130.827 930.788 126.787C924.301 122.756 919.145 117.41 915.437 110.496C911.729 103.582 909.748 95.9052 909.748 87.4224C909.748 78.9396 911.597 71.1314 915.437 64.2347C919.145 57.3205 924.301 51.8608 930.788 47.8121C937.275 43.7637 944.552 41.6872 952.486 41.6872C959.244 41.6873 965.319 43.1246 970.483 45.9902C974.058 47.9216 977.082 50.3308 979.609 53.2096V0H1000V130.95ZM955.799 60.7474C950.776 60.7474 946.532 61.9124 942.833 64.1295C939.125 66.3466 936.074 69.4753 933.952 73.5064C931.848 77.5549 930.779 82.1031 930.779 87.3171C930.779 92.5313 931.84 97.0976 933.952 101.129C936.065 105.177 939.125 108.296 942.833 110.505C946.541 112.722 950.907 113.888 955.799 113.888C960.831 113.888 965.196 112.722 969.027 110.505C972.736 108.288 975.786 105.16 977.759 101.129C979.872 97.0976 980.942 92.5313 980.942 87.3171C980.942 82.1031 979.88 77.5374 977.759 73.5064C975.655 69.4754 972.727 66.3378 969.027 64.1295C965.319 61.9125 960.822 60.7474 955.799 60.7474Z" fill="white"></path><path d="M50.4252 1.66537C58.8938 1.66537 66.5649 3.36493 73.3152 6.61611C80.0655 9.87605 85.4918 14.0476 89.7261 19.1303L75.3048 33.3356C71.5966 29.1731 67.7656 26.1674 63.7943 24.0905C59.8231 22.1363 55.1941 21.0935 50.0306 21.0935C43.6837 21.0936 38.6514 22.3902 34.9432 24.8701C31.3666 27.4728 29.5172 30.9961 29.5172 35.5529C29.5172 39.4698 30.5778 42.5805 32.8218 44.929C35.0748 47.2775 37.9853 49.3639 41.5533 50.9238C45.1301 52.6239 49.2245 54.0517 53.5903 55.6204C57.956 57.0575 62.3215 58.7493 66.6872 60.572C71.0529 62.4035 75.0247 64.7342 78.7241 67.5997C82.3009 70.4653 85.3429 74.1114 87.4557 78.6771C89.7086 83.1113 90.7603 88.8427 90.7603 95.6166C90.7602 107.079 86.6581 116.07 78.4528 122.721C70.1157 129.364 59.1307 132.755 45.2269 132.755V132.78C35.0513 132.777 26.3285 130.946 19.1898 127.304C12.0451 123.658 5.68949 118.313 0 111.276L14.4213 97.0706C17.998 102.153 22.2318 106.193 27.1235 108.928C32.0152 111.793 38.3716 113.23 45.9109 113.23C53.0555 113.23 58.7451 111.794 62.9793 108.797C67.2136 105.931 69.3266 101.882 69.3266 96.8078C69.3265 92.5052 68.2653 89.1141 66.0211 86.38C63.7681 83.7773 60.8576 81.5602 57.2896 79.7374C53.7129 78.0373 49.6191 76.3544 45.2534 75.04C40.8877 73.6028 36.5215 72.0426 32.1557 70.3425C27.79 68.6425 23.819 66.4252 20.1196 63.6999C16.5429 61.0972 13.5008 57.5747 11.3881 53.2721C9.13503 48.9693 8.08259 43.6233 8.08259 37.1122C8.08263 29.5496 9.93265 23.1703 13.7723 17.9562C17.4805 12.6107 22.6351 8.71103 28.9907 5.82793C35.3376 3.09381 42.4915 1.66539 50.4252 1.66537Z" fill="white"></path><path d="M2.84017 210.415C4.74252 206.866 7.34621 204.115 10.6863 202.16C14.0001 200.206 17.7171 199.225 21.7936 199.225C25.8701 199.225 29.3066 200.092 32.261 201.81C35.2153 203.545 37.4245 205.718 38.871 208.347V199.961H46.5856V245.863H38.871V237.319C37.3719 240 35.1189 242.226 32.1295 243.979C29.14 245.731 25.6597 246.625 21.6972 246.625C17.7347 246.625 13.93 245.626 10.6337 243.602C7.33745 241.578 4.74252 238.765 2.84893 235.145C0.95534 231.526 0.00854492 227.381 0.00854492 222.745C0.00854492 218.109 0.946574 213.947 2.84893 210.398V210.415H2.84017ZM36.767 213.798C35.3731 211.23 33.4883 209.267 31.1125 207.892C28.7368 206.533 26.1331 205.85 23.2664 205.85C20.3997 205.85 17.8136 206.516 15.4816 207.856C13.1497 209.197 11.2649 211.151 9.86223 213.719C8.46834 216.287 7.75824 219.293 7.75824 222.772C7.75824 226.251 8.45081 229.344 9.86223 231.956C11.2561 234.541 13.1234 236.539 15.4816 237.897C17.8399 239.255 20.426 239.939 23.2664 239.939C26.1068 239.939 28.7193 239.247 31.1125 237.897C33.4883 236.521 35.3731 234.549 36.767 231.956C38.1609 229.362 38.871 226.321 38.871 222.868C38.871 219.415 38.1609 216.383 36.767 213.815V213.798Z" fill="white"></path><path fill-rule="evenodd" clip-rule="evenodd" d="M814.042 199.225C818.005 199.225 821.81 200.206 825.15 202.16C828.464 204.114 831.093 206.867 832.996 210.416C834.898 213.965 835.836 218.075 835.836 222.763C835.836 227.452 834.898 231.526 832.996 235.163C831.093 238.782 828.49 241.613 825.15 243.62C821.837 245.627 818.119 246.643 814.042 246.643C809.966 246.643 806.687 245.758 803.698 243.996C800.708 242.244 798.429 240.053 796.869 237.424V267.657H789.242V199.996H796.869V208.453C798.368 205.824 800.621 203.633 803.61 201.88V201.872C806.6 200.119 810.08 199.225 814.042 199.225ZM812.421 205.859C809.554 205.859 807.038 206.551 804.671 207.901C802.296 209.277 800.393 211.248 798.964 213.842C797.535 216.436 796.825 219.433 796.825 222.842C796.825 226.251 797.535 229.327 798.964 231.93C800.393 234.515 802.278 236.512 804.671 237.871C807.047 239.246 809.633 239.913 812.421 239.913C815.209 239.913 817.874 239.22 820.267 237.871C822.643 236.495 824.528 234.524 825.922 231.93C827.316 229.336 828.025 226.277 828.025 222.745C828.025 219.214 827.316 216.26 825.922 213.693V213.728C824.528 211.16 822.643 209.198 820.267 207.866C817.891 206.525 815.287 205.859 812.421 205.859Z" fill="white"></path><path d="M973.578 237.179L987.815 199.987H995.678L968.037 267.491H960.156L969.212 245.381L950.697 199.987H959.156L973.578 237.179Z" fill="white"></path><path d="M617.986 199.225C623.623 199.225 628.278 200.601 631.933 203.335C635.589 206.069 638 209.873 639.175 214.728H630.97C630.189 211.941 628.672 209.732 626.402 208.12C624.132 206.508 621.326 205.692 617.977 205.692C613.611 205.692 610.096 207.191 607.413 210.162C604.731 213.133 603.39 217.382 603.39 222.851C603.39 228.319 604.731 232.648 607.413 235.671C610.096 238.695 613.611 240.202 617.977 240.202C621.326 240.202 624.114 239.422 626.367 237.862C628.594 236.302 630.137 234.059 630.97 231.167H639.175C637.947 235.855 635.484 239.606 631.802 242.428C628.111 245.249 623.509 246.66 617.986 246.66C613.62 246.66 609.762 245.679 606.378 243.725C602.995 241.771 600.365 239.002 598.463 235.435C596.56 231.868 595.622 227.671 595.622 222.869C595.622 218.066 596.56 213.982 598.463 210.433V210.416C600.365 206.867 602.995 204.114 606.378 202.16C609.762 200.206 613.62 199.225 617.986 199.225Z" fill="white"></path><path fill-rule="evenodd" clip-rule="evenodd" d="M669.674 199.234C674.022 199.234 677.968 200.198 681.483 202.135C684.998 204.054 687.786 206.805 689.811 210.39C691.836 213.956 692.87 218.119 692.87 222.869C692.87 227.618 691.819 231.798 689.741 235.4C687.637 239.002 684.814 241.771 681.229 243.725C677.643 245.679 673.689 246.66 669.332 246.66C664.975 246.66 661.126 245.679 657.646 243.725L657.655 243.717C654.157 241.762 651.422 238.993 649.45 235.391C647.477 231.79 646.477 227.627 646.477 222.86C646.477 218.093 647.494 214.026 649.537 210.425C651.562 206.823 654.359 204.054 657.865 202.135C661.381 200.215 665.325 199.234 669.674 199.234ZM669.603 205.859C666.868 205.859 664.256 206.49 661.942 207.743C659.628 208.997 657.76 210.916 656.366 213.483C654.972 216.051 654.262 219.188 654.262 222.86C654.262 226.532 654.955 229.757 656.305 232.333C657.655 234.909 659.496 236.802 661.793 238.073C664.072 239.326 666.597 239.957 669.332 239.957C672.067 239.957 674.636 239.326 677.047 238.038V238.02L677.055 238.012C679.466 236.724 681.403 234.804 682.867 232.236C684.349 229.669 685.094 226.532 685.094 222.86C685.094 219.188 684.367 216.051 682.92 213.483C681.474 210.916 679.571 209.014 677.231 207.743C674.872 206.49 672.339 205.859 669.603 205.859Z" fill="white"></path><path fill-rule="evenodd" clip-rule="evenodd" d="M864.819 199.225C868.896 199.225 872.332 200.093 875.286 201.81C878.241 203.545 880.45 205.719 881.896 208.348V199.961H889.611V245.863H881.896V237.319C880.397 240 878.145 242.227 875.155 243.979C872.166 245.732 868.685 246.625 864.723 246.625C860.76 246.625 856.955 245.626 853.659 243.602C850.363 241.578 847.768 238.765 845.874 235.146C843.972 231.527 843.034 227.381 843.034 222.745C843.034 218.11 843.972 213.947 845.874 210.398V210.4C847.776 206.858 850.377 204.112 853.712 202.16C857.026 200.206 860.743 199.225 864.819 199.225ZM866.309 205.85C863.442 205.85 860.856 206.516 858.524 207.856C856.192 209.197 854.308 211.152 852.906 213.719C851.512 216.287 850.801 219.293 850.801 222.772C850.801 226.251 851.494 229.344 852.906 231.955C854.299 234.54 856.166 236.539 858.524 237.897C860.882 239.255 863.469 239.939 866.309 239.939C869.149 239.939 871.762 239.247 874.155 237.897C876.531 236.521 878.416 234.549 879.81 231.955C881.204 229.362 881.914 226.321 881.914 222.869C881.914 219.416 881.204 216.384 879.81 213.816V213.798C878.416 211.231 876.531 209.267 874.155 207.891C871.78 206.533 869.176 205.85 866.309 205.85Z" fill="white"></path><path d="M924.844 199.173C930.419 199.173 934.952 200.855 938.414 204.246L938.432 204.229L938.441 204.22C941.904 207.603 943.64 212.475 943.64 218.828V245.881H936.1V219.915C936.1 215.332 934.961 211.835 932.655 209.416C930.376 206.989 927.237 205.779 923.275 205.779C919.312 205.779 916.051 207.033 913.675 209.548C911.3 212.063 910.108 215.726 910.108 220.519V245.907H902.481V200.004H910.108V206.542C911.607 204.202 913.676 202.379 916.262 201.091C918.848 199.803 921.715 199.173 924.844 199.173Z" fill="white"></path><path d="M758.173 199.137C761.806 199.137 764.923 199.88 767.708 201.357L767.711 201.363C770.499 202.844 772.708 205.052 774.321 208.023C775.934 210.976 776.75 214.578 776.75 218.828V245.881H769.21V219.915C769.21 215.332 768.088 211.835 765.827 209.416C763.565 206.989 760.505 205.779 756.665 205.779C752.826 205.779 749.546 207.051 747.188 209.583C744.848 212.116 743.673 215.796 743.673 220.59V245.881H736.134V219.915C736.134 215.332 735.012 211.835 732.75 209.416C730.488 206.998 727.428 205.779 723.588 205.779C719.749 205.779 716.47 207.051 714.112 209.583C711.754 212.116 710.597 215.796 710.597 220.59V245.881H702.97V199.979H710.597V206.586C712.096 204.176 714.13 202.353 716.663 201.065C719.197 199.777 722.011 199.146 725.087 199.146C728.945 199.146 732.355 200.014 735.301 201.731C738.255 203.467 740.465 206.007 741.911 209.355C743.2 206.113 745.312 203.598 748.284 201.819C751.238 200.022 754.535 199.137 758.173 199.137Z" fill="white"></path><path d="M767.719 201.363C767.716 201.361 767.711 201.359 767.708 201.357L767.702 201.346L767.719 201.363Z" fill="white"></path><path d="M113.256 212.098C103.008 208.383 94.1272 201.854 87.5171 193.433H75.2877C75.2877 193.704 75.2701 193.976 75.2701 194.248C75.2701 226.058 101.062 251.822 132.867 251.822C133.139 251.822 133.41 251.822 133.682 251.805V240.474C124.205 233.428 116.964 223.543 113.23 212.081" fill="#015C9A"></path><path d="M133.691 215.525V193.45H87.5171C98.0633 206.902 114.448 215.56 132.876 215.56C133.147 215.56 133.419 215.56 133.691 215.542" fill="#00BCCE"></path><path d="M168.845 157.108H156.546C149.751 157.108 144.263 162.612 144.263 169.386C144.263 176.16 149.769 181.663 156.546 181.663C163.322 181.663 168.845 176.16 168.845 169.386V157.108Z" fill="#7CCBC1"></path><path d="M133.691 240.509V193.433H110.433C110.433 193.704 110.416 193.976 110.416 194.248C110.416 213.185 119.559 230.011 133.708 240.491" fill="#FF3A00"></path><path d="M133.691 193.432V157.126H75.2789C75.2789 157.398 75.2614 157.669 75.2614 157.941C75.2614 171.34 79.8463 183.652 87.5259 193.432H133.7H133.691Z" fill="#7CCBC1"></path><path d="M133.691 193.433V240.509C143.273 247.625 155.152 251.84 168.012 251.84C168.284 251.84 168.556 251.84 168.828 251.822V193.433H133.691Z" fill="#FF5E00"></path><path fill-rule="evenodd" clip-rule="evenodd" d="M314.731 180.997C322.813 181.032 329.853 183.854 335.2 188.761V182.469H356.437L356.434 182.46H379.086L391.912 223.761L405.368 182.46H426.435L439.822 223.507L452.577 182.46H491.86L507.491 222.815L524.034 182.46H547.449L508.184 276H485.723L496.516 249.631L472.074 191.107L450.403 250.814H429.696L415.915 211.905L402.125 250.814H381.26L358.178 187.264V250.822H335.192V244.373C329.8 249.333 322.699 252.198 314.546 252.216C296.382 252.251 282.908 237.038 282.943 216.47C282.978 195.938 296.417 180.909 314.731 180.997ZM320.762 201.144C312.013 201.109 305.587 207.62 305.587 216.532C305.57 225.339 311.796 231.846 320.27 232.047L320.692 232.052C329.528 232.034 335.797 225.663 335.797 216.628C335.814 207.567 329.599 201.179 320.762 201.144Z" fill="white"></path><path d="M256.354 213.78V157.107H279.594V250.814H256.354L219.385 194.264V250.814H196.145V157.107H219.385L256.354 213.78Z" fill="white"></path><path d="M573.478 190.917L576.722 182.46H578.571V192.511H577.282V184.143H577.264L574.057 192.511H572.899L569.717 184.143H569.69V192.511H568.411V182.46H570.261L573.478 190.917Z" fill="white"></path><path d="M335.2 182.469H335.192L335.2 182.46V182.469Z" fill="white"></path></svg> 